<?xml version="1.0" encoding="UTF-8" standalone="no"?>
<svg
   xmlns:dc="http://purl.org/dc/elements/1.1/"
   xmlns:cc="http://creativecommons.org/ns#"
   xmlns:rdf="http://www.w3.org/1999/02/22-rdf-syntax-ns#"
   xmlns:svg="http://www.w3.org/2000/svg"
   xmlns="http://www.w3.org/2000/svg"
   xmlns:sodipodi="http://sodipodi.sourceforge.net/DTD/sodipodi-0.dtd"
   xmlns:inkscape="http://www.inkscape.org/namespaces/inkscape"
   width="79.371902mm"
   height="77.381325mm"
   viewBox="0 0 79.371902 77.381325"
   version="1.1"
   id="svg8"
   sodipodi:docname="logo.svg"
   inkscape:version="1.0.2 (e86c870879, 2021-01-15)">
  <sodipodi:namedview
     pagecolor="#ffffff"
     bordercolor="#666666"
     borderopacity="1"
     objecttolerance="10"
     gridtolerance="10"
     guidetolerance="10"
     inkscape:pageopacity="0"
     inkscape:pageshadow="2"
     inkscape:window-width="1920"
     inkscape:window-height="1050"
     id="namedview8"
     showgrid="false"
     inkscape:zoom="1.9043808"
     inkscape:cx="261.73398"
     inkscape:cy="165.02633"
     inkscape:window-x="0"
     inkscape:window-y="0"
     inkscape:window-maximized="1"
     inkscape:current-layer="svg8"
     inkscape:document-rotation="0" />
  <defs
     id="defs2" />
  <metadata
     id="metadata5">
    <rdf:RDF>
      <cc:Work
         rdf:about="">
        <dc:format>image/svg+xml</dc:format>
        <dc:type
           rdf:resource="http://purl.org/dc/dcmitype/StillImage" />
        <dc:title />
      </cc:Work>
    </rdf:RDF>
  </metadata>
  <path
     style="fill:#ffffff;fill-opacity:1;stroke:none;stroke-width:0.0881063;stroke-linecap:round;stroke-dasharray:0.0881063, 0.08810630000000000;stop-color:#000000"
     d="m 22.297359,0.4987396 17.38857,0.03853 17.388567,-0.03853 10.811517,13.6191714 10.87201,13.571002 -3.90694,16.94382 L 71.019603,61.59421 55.335637,69.104102 39.685929,76.68357 24.036218,69.104102 8.3527894,61.59421 4.5207764,44.632733 0.61383335,27.688913 11.485837,14.117911 Z"
     id="path849" />
  <path
     id="rect1084"
     style="fill:#db4a32;fill-opacity:1;stroke:none;stroke-width:0.999999;stroke-linecap:square;stop-color:#000000"
     d="M 83.240234 0 L 41.736328 52.28125 L 0 104.37891 L 15 169.42578 L 29.708984 234.53906 L 89.916016 263.36719 L 149.99414 292.46484 L 210.07227 263.36719 L 270.2793 234.53906 L 284.98828 169.42578 L 299.98828 104.37891 L 258.25195 52.28125 L 216.74805 0 L 149.99414 0.1484375 L 83.240234 0 z M 132.69141 68.796875 C 133.75241 68.797159 135.13363 68.825064 136.96875 68.861328 C 144.0739 69.001775 144.4806 69.06315 146.70898 70.373047 C 148.22577 71.264641 149.0332 72.074032 149.0332 72.699219 C 149.0332 73.226342 148.77197 73.658203 148.45312 73.658203 C 148.13429 73.658203 146.91234 74.124057 145.73633 74.693359 C 144.56031 75.262636 143.47293 75.603793 143.32031 75.451172 C 143.1677 75.298555 142.77823 75.437738 142.45508 75.761719 C 142.07487 76.142567 141.91205 77.697167 141.99219 80.167969 C 142.06029 82.268044 141.95189 85.51574 141.75195 87.384766 C 141.51554 89.597392 141.57096 90.965504 141.9082 91.306641 C 142.27357 91.676203 142.13586 92.001997 141.44531 92.412109 C 140.90685 92.731895 140.01371 93.127977 139.45898 93.292969 C 138.84636 93.475142 138.03687 93.258908 137.39844 92.742188 C 136.82031 92.274093 136.46634 91.773889 136.61133 91.628906 C 136.75627 91.483886 136.61809 90.884825 136.30469 90.298828 C 135.95013 89.636356 135.74945 86.890205 135.77344 83.037109 C 135.79498 79.628769 135.64785 76.617769 135.44727 76.345703 C 135.24672 76.073615 133.87144 75.327615 132.39062 74.689453 C 130.90982 74.051291 129.1755 73.287218 128.53711 72.990234 C 127.89872 72.693239 127.26639 72.164497 127.13281 71.816406 C 126.99924 71.468274 127.48981 70.628407 128.22266 69.949219 C 129.21209 69.032242 129.50841 68.796024 132.69141 68.796875 z M 250.14258 68.796875 C 251.20358 68.797159 252.5848 68.825064 254.41992 68.861328 C 261.52507 69.001775 261.92982 69.06315 264.1582 70.373047 C 265.67499 71.264641 266.48437 72.074032 266.48438 72.699219 C 266.48437 73.226342 266.22317 73.658203 265.9043 73.658203 C 265.58546 73.658203 264.36157 74.124057 263.18555 74.693359 C 262.00954 75.262636 260.92411 75.603793 260.77148 75.451172 C 260.61887 75.298555 260.2294 75.437738 259.90625 75.761719 C 259.52604 76.142567 259.36127 77.697167 259.44141 80.167969 C 259.50951 82.268044 259.40306 85.51574 259.20312 87.384766 C 258.96673 89.597392 259.02017 90.965504 259.35742 91.306641 C 259.72279 91.676203 259.58703 92.001997 258.89648 92.412109 C 258.35803 92.731895 257.46293 93.127977 256.9082 93.292969 C 256.29558 93.475142 255.48804 93.258908 254.84961 92.742188 C 254.27149 92.274093 253.91751 91.773889 254.0625 91.628906 C 254.20744 91.483886 254.06926 90.884825 253.75586 90.298828 C 253.4013 89.636356 253.19866 86.890205 253.22266 83.037109 C 253.2442 79.628769 253.09706 76.617769 252.89648 76.345703 C 252.6959 76.073615 251.32066 75.327615 249.83984 74.689453 C 248.35902 74.051291 246.62472 73.287218 245.98633 72.990234 C 245.34794 72.693239 244.71756 72.164497 244.58398 71.816406 C 244.45042 71.468274 244.94098 70.628407 245.67383 69.949219 C 246.66326 69.032242 246.95958 68.796024 250.14258 68.796875 z M 108.19531 69.380859 C 108.46777 69.390686 108.77727 69.428517 109.14258 69.490234 C 110.15746 69.661712 111.68694 70.440635 112.54102 71.220703 C 113.39508 72.000779 114.22883 73.30819 114.39258 74.126953 C 114.55631 74.945716 114.86651 75.615234 115.08398 75.615234 C 115.30142 75.615234 115.63917 76.111041 115.83398 76.716797 C 116.02882 77.322583 116.24524 78.258398 116.31445 78.796875 C 116.38366 79.335333 116.81161 80.657421 117.26562 81.734375 C 117.71967 82.811332 118.42079 84.065323 118.82422 84.519531 C 119.22762 84.973751 119.42703 85.556459 119.26758 85.814453 C 119.10812 86.072406 119.31815 86.412618 119.73438 86.572266 C 120.15043 86.731913 120.89539 87.801769 121.38867 88.949219 C 121.88198 90.096664 122.43382 92.230249 122.61523 93.689453 C 122.92705 96.197355 122.89668 96.305225 122.06055 95.65625 C 121.21893 95.00303 121.21625 95.017065 122.00781 95.951172 C 122.46538 96.491195 122.68438 97.147063 122.49609 97.410156 C 122.30776 97.673249 121.85708 97.952565 121.49219 98.029297 C 121.12731 98.106059 120.47799 97.885135 120.05078 97.539062 C 119.45796 97.058943 119.36201 97.054701 119.64258 97.521484 C 119.9025 97.954138 119.60708 98.130079 118.63477 98.119141 C 117.87847 98.110448 116.67733 97.590809 115.9668 96.964844 C 115.25626 96.338867 114.52504 95.136212 114.33984 94.292969 C 114.15465 93.44973 113.7993 92.634069 113.55078 92.480469 C 113.30228 92.326907 113.09766 91.774548 113.09766 91.251953 C 113.09766 90.729339 112.87864 90.300781 112.60938 90.300781 C 112.34012 90.300781 112.17489 90.025982 112.24219 89.689453 C 112.3208 89.296352 111.63854 89.024734 110.33594 88.929688 C 108.742 88.813391 108.03479 89.034763 107.03125 89.964844 C 106.3291 90.615569 105.75586 91.38153 105.75586 91.667969 C 105.75586 91.954381 105.48114 92.480159 105.14453 92.835938 C 104.80796 93.191703 104.23291 94.063529 103.86719 94.773438 C 103.39764 95.684854 102.68431 96.149869 101.44141 96.351562 C 100.18985 96.554674 99.427812 96.405322 98.802734 95.839844 C 98.319204 95.40228 97.926244 94.474067 97.929688 93.775391 C 97.933009 93.076711 98.460824 90.851323 99.101562 88.832031 C 99.742294 86.812747 100.37396 84.199569 100.50586 83.023438 C 100.63773 81.847305 101.01416 80.717385 101.34375 80.513672 C 101.71309 80.285426 101.7583 80.02946 101.46094 79.845703 C 101.1952 79.681445 101.08774 78.499698 101.2207 77.214844 C 101.35352 75.931706 101.84311 74.480981 102.30859 73.992188 C 102.77408 73.503393 103.57452 73.041919 104.08789 72.966797 C 104.60126 72.891698 105.09574 72.446721 105.1875 71.976562 C 105.27923 71.506387 105.7919 70.684661 106.32617 70.150391 C 106.9031 69.573458 107.37794 69.35138 108.19531 69.380859 z M 163.95508 69.380859 C 164.22754 69.390686 164.53899 69.428517 164.9043 69.490234 C 165.91917 69.661712 167.44866 70.440635 168.30273 71.220703 C 169.1568 72.000779 169.98859 73.30819 170.15234 74.126953 C 170.31607 74.945716 170.62823 75.615234 170.8457 75.615234 C 171.06314 75.615234 171.40089 76.111041 171.5957 76.716797 C 171.79054 77.322583 172.00501 78.258398 172.07422 78.796875 C 172.14342 79.335333 172.57332 80.657421 173.02734 81.734375 C 173.48139 82.811332 174.18251 84.065323 174.58594 84.519531 C 174.98933 84.973751 175.18875 85.556459 175.0293 85.814453 C 174.86984 86.072406 175.07987 86.412618 175.49609 86.572266 C 175.91216 86.731913 176.65515 87.801769 177.14844 88.949219 C 177.64174 90.096664 178.19359 92.230249 178.375 93.689453 C 178.68681 96.197355 178.65648 96.305225 177.82031 95.65625 C 176.9787 95.00303 176.97602 95.017065 177.76758 95.951172 C 178.22515 96.491195 178.4461 97.147063 178.25781 97.410156 C 178.06948 97.673249 177.61684 97.952565 177.25195 98.029297 C 176.88708 98.106059 176.2397 97.885135 175.8125 97.539062 C 175.21968 97.058943 175.12178 97.054701 175.40234 97.521484 C 175.66226 97.954138 175.36685 98.130079 174.39453 98.119141 C 173.63824 98.110448 172.43905 97.590809 171.72852 96.964844 C 171.01798 96.338867 170.28481 95.136212 170.09961 94.292969 C 169.91441 93.44973 169.55907 92.634069 169.31055 92.480469 C 169.06204 92.326907 168.85938 91.774548 168.85938 91.251953 C 168.85938 90.729339 168.63842 90.300781 168.36914 90.300781 C 168.09989 90.300781 167.93465 90.025982 168.00195 89.689453 C 168.08057 89.296352 167.40026 89.024734 166.09766 88.929688 C 164.50371 88.813391 163.79651 89.034763 162.79297 89.964844 C 162.09082 90.615569 161.51562 91.38153 161.51562 91.667969 C 161.51562 91.954381 161.2409 92.480159 160.9043 92.835938 C 160.56773 93.191703 159.99268 94.063529 159.62695 94.773438 C 159.15741 95.684854 158.44603 96.149869 157.20312 96.351562 C 155.95158 96.554674 155.18757 96.405322 154.5625 95.839844 C 154.07897 95.40228 153.68601 94.474067 153.68945 93.775391 C 153.69278 93.076711 154.22058 90.851323 154.86133 88.832031 C 155.50206 86.812747 156.13373 84.199569 156.26562 83.023438 C 156.39749 81.847305 156.77588 80.717385 157.10547 80.513672 C 157.4748 80.285426 157.52002 80.02946 157.22266 79.845703 C 156.95692 79.681445 156.8475 78.499698 156.98047 77.214844 C 157.11328 75.931706 157.60287 74.480981 158.06836 73.992188 C 158.53385 73.503393 159.33428 73.041919 159.84766 72.966797 C 160.36102 72.891698 160.85746 72.446721 160.94922 71.976562 C 161.04099 71.506387 161.55362 70.684661 162.08789 70.150391 C 162.66482 69.573458 163.1377 69.35138 163.95508 69.380859 z M 42.613281 70.396484 C 43.014252 70.402201 43.454714 70.439671 43.972656 70.503906 C 45.765974 70.726294 46.884154 71.207064 47.96875 72.220703 C 48.98183 73.167516 49.394275 73.940713 49.226562 74.582031 C 49.089442 75.106437 48.282986 75.796771 47.433594 76.115234 C 46.584202 76.433697 45.392896 76.929239 44.787109 77.216797 C 44.181323 77.504381 43.685547 77.922736 43.685547 78.146484 C 43.685547 78.37027 43.359684 78.552734 42.960938 78.552734 C 42.562224 78.552734 42.096675 79.104248 41.927734 79.777344 C 41.758789 80.45044 41.441827 81 41.222656 81 C 41.003444 81 40.560192 81.80387 40.236328 82.785156 C 39.887062 83.84345 39.751785 85.872781 39.904297 87.773438 C 40.089191 90.076786 40.406862 91.15831 41.037109 91.619141 C 41.519309 91.971695 42.436835 92.259766 43.076172 92.259766 C 43.715513 92.259766 44.664773 92.030708 45.185547 91.751953 C 45.711925 91.470265 46.132812 90.731404 46.132812 90.087891 C 46.132812 89.417573 45.412006 88.208877 44.419922 87.216797 C 43.412232 86.209107 42.713502 85.030108 42.722656 84.353516 C 42.731349 83.720804 43.030513 82.817562 43.388672 82.345703 C 43.861971 81.722172 44.437981 81.567655 45.496094 81.779297 C 46.296824 81.939473 47.744118 81.851462 48.712891 81.583984 C 50.177121 81.179666 50.60656 81.241718 51.253906 81.957031 C 51.734893 82.48855 52.4783 82.73352 53.199219 82.595703 C 54.199754 82.404459 54.519849 82.711056 55.439453 84.746094 C 56.029445 86.05169 56.740511 88.840661 57.019531 90.943359 C 57.379682 93.657559 57.371526 95.076716 56.994141 95.837891 C 56.701945 96.427584 56.397594 97.323769 56.316406 97.830078 C 56.235222 98.336391 55.672189 99.078909 55.066406 99.480469 C 54.040847 100.16028 53.964844 100.13906 53.964844 99.171875 C 53.964844 98.600573 53.745839 98.134766 53.476562 98.134766 C 53.20731 98.134766 52.986328 97.824002 52.986328 97.445312 C 52.986328 97.006072 52.644047 96.846194 52.041016 97.003906 C 51.521176 97.139818 50.976825 97.560141 50.832031 97.9375 C 50.687275 98.31481 50.232625 98.623047 49.820312 98.623047 C 49.408012 98.623047 49.070312 98.873251 49.070312 99.179688 C 49.070312 99.573887 48.116525 99.640873 45.806641 99.404297 C 44.011221 99.220347 42.302905 98.920269 42.011719 98.738281 C 41.720544 98.556259 41.042383 98.343053 40.503906 98.263672 C 39.965448 98.184302 38.973877 97.67918 38.300781 97.142578 C 37.627681 96.605949 36.609493 95.965489 36.039062 95.71875 C 35.468633 95.471973 34.532815 94.672872 33.958984 93.943359 C 33.38514 93.213846 32.916016 92.349621 32.916016 92.023438 C 32.916016 91.697226 32.600231 90.791538 32.214844 90.009766 C 31.747212 89.061138 31.579893 87.529808 31.708984 85.40625 C 31.815359 83.656197 31.993986 81.6731 32.107422 81 C 32.220857 80.3269 32.905325 78.467253 33.628906 76.867188 C 34.352485 75.267117 35.314033 73.664592 35.765625 73.304688 C 36.21724 72.944763 37.688964 72.096691 39.035156 71.421875 C 40.562327 70.656356 41.410368 70.379335 42.613281 70.396484 z M 75.113281 70.396484 C 75.514253 70.402201 75.954713 70.439671 76.472656 70.503906 C 78.265974 70.726294 79.384154 71.20706 80.46875 72.220703 C 81.48183 73.167513 81.892318 73.94071 81.724609 74.582031 C 81.587488 75.106437 80.781029 75.796771 79.931641 76.115234 C 79.082249 76.433697 77.890943 76.929239 77.285156 77.216797 C 76.67937 77.504381 76.183594 77.92274 76.183594 78.146484 C 76.183594 78.37027 75.857736 78.552734 75.458984 78.552734 C 75.060274 78.552734 74.596679 79.104248 74.427734 79.777344 C 74.258789 80.45044 73.941827 81 73.722656 81 C 73.503444 81 73.058239 81.803874 72.734375 82.785156 C 72.385109 83.843454 72.249832 85.872781 72.402344 87.773438 C 72.587238 90.07679 72.906866 91.15831 73.537109 91.619141 C 74.019309 91.971733 74.936831 92.259766 75.576172 92.259766 C 76.215509 92.259766 77.164773 92.030671 77.685547 91.751953 C 78.211922 91.470265 78.632813 90.731404 78.632812 90.087891 C 78.632812 89.417576 77.910053 88.208874 76.917969 87.216797 C 75.910282 86.209103 75.211549 85.030108 75.220703 84.353516 C 75.229396 83.720804 75.530509 82.817566 75.888672 82.345703 C 76.361967 81.722172 76.936028 81.567655 77.994141 81.779297 C 78.794871 81.939473 80.244118 81.851462 81.212891 81.583984 C 82.677121 81.179662 83.104607 81.241718 83.751953 81.957031 C 84.232943 82.48855 84.976343 82.733516 85.697266 82.595703 C 86.697797 82.404459 87.017892 82.71106 87.9375 84.746094 C 88.527492 86.05169 89.238551 88.840661 89.517578 90.943359 C 89.877729 93.657559 89.871526 95.076713 89.494141 95.837891 C 89.201945 96.427584 88.895637 97.323773 88.814453 97.830078 C 88.733269 98.336391 88.172196 99.078909 87.566406 99.480469 C 86.540839 100.16028 86.464844 100.13906 86.464844 99.171875 C 86.464844 98.600573 86.243886 98.134766 85.974609 98.134766 C 85.705356 98.134766 85.486328 97.824002 85.486328 97.445312 C 85.486328 97.006072 85.144009 96.846194 84.541016 97.003906 C 84.021176 97.139818 83.476825 97.560141 83.332031 97.9375 C 83.187275 98.31481 82.730672 98.623047 82.318359 98.623047 C 81.906062 98.623047 81.568359 98.873251 81.568359 99.179688 C 81.568359 99.573887 80.614571 99.640873 78.304688 99.404297 C 76.509268 99.220309 74.802905 98.920273 74.511719 98.738281 C 74.220544 98.556259 73.540434 98.343053 73.001953 98.263672 C 72.463495 98.184264 71.471924 97.67918 70.798828 97.142578 C 70.125728 96.605972 69.109491 95.965489 68.539062 95.71875 C 67.968631 95.471985 67.032819 94.672872 66.458984 93.943359 C 65.885143 93.213846 65.414063 92.349621 65.414062 92.023438 C 65.414062 91.697226 65.100227 90.791542 64.714844 90.009766 C 64.247214 89.061142 64.077938 87.529804 64.207031 85.40625 C 64.313425 83.656197 64.493994 81.6731 64.607422 81 C 64.720883 80.3269 65.405323 78.467257 66.128906 76.867188 C 66.852485 75.267121 67.814032 73.664592 68.265625 73.304688 C 68.717241 72.944763 70.187011 72.096687 71.533203 71.421875 C 73.060374 70.656353 73.910366 70.379335 75.113281 70.396484 z M 225.19922 70.396484 C 225.60019 70.402201 226.04065 70.439671 226.55859 70.503906 C 228.35191 70.726294 229.47009 71.20706 230.55469 72.220703 C 231.56777 73.167513 231.97825 73.94071 231.81055 74.582031 C 231.67343 75.106437 230.86697 75.796771 230.01758 76.115234 C 229.16818 76.433697 227.97688 76.929239 227.37109 77.216797 C 226.76531 77.504381 226.26953 77.92274 226.26953 78.146484 C 226.26953 78.37027 225.94367 78.552734 225.54492 78.552734 C 225.14621 78.552734 224.68262 79.104248 224.51367 79.777344 C 224.34469 80.45044 224.02581 81 223.80664 81 C 223.58743 81 223.14418 81.803874 222.82031 82.785156 C 222.47105 83.843454 222.33577 85.872781 222.48828 87.773438 C 222.67318 90.07679 222.9928 91.15831 223.62305 91.619141 C 224.10525 91.971733 225.02277 92.259766 225.66211 92.259766 C 226.30145 92.259766 227.25071 92.030671 227.77148 91.751953 C 228.29786 91.470265 228.71875 90.731404 228.71875 90.087891 C 228.71875 89.417576 227.99599 88.208874 227.00391 87.216797 C 225.99622 86.209103 225.29749 85.030108 225.30664 84.353516 C 225.31533 83.720804 225.61449 82.817566 225.97266 82.345703 C 226.44595 81.722172 227.02197 81.567655 228.08008 81.779297 C 228.88081 81.939473 230.33005 81.851462 231.29883 81.583984 C 232.76305 81.179662 233.19054 81.241718 233.83789 81.957031 C 234.31888 82.48855 235.06228 82.733516 235.7832 82.595703 C 236.78373 82.404459 237.10383 82.71106 238.02344 84.746094 C 238.61343 86.05169 239.32449 88.840661 239.60352 90.943359 C 239.96367 93.657559 239.95746 95.076713 239.58008 95.837891 C 239.28788 96.427584 238.98157 97.323773 238.90039 97.830078 C 238.81921 98.336391 238.25813 99.078909 237.65234 99.480469 C 236.62678 100.16028 236.55078 100.13906 236.55078 99.171875 C 236.55078 98.600573 236.32982 98.134766 236.06055 98.134766 C 235.79129 98.134766 235.57031 97.824002 235.57031 97.445312 C 235.57031 97.006072 235.22998 96.846194 234.62695 97.003906 C 234.10711 97.139818 233.56276 97.560141 233.41797 97.9375 C 233.27321 98.31481 232.81661 98.623047 232.4043 98.623047 C 231.992 98.623047 231.6543 98.873251 231.6543 99.179688 C 231.6543 99.573887 230.70051 99.640873 228.39062 99.404297 C 226.59522 99.220309 224.88884 98.920273 224.59766 98.738281 C 224.30648 98.556259 223.62637 98.343053 223.08789 98.263672 C 222.54943 98.184264 221.55786 97.67918 220.88477 97.142578 C 220.21167 96.605972 219.19543 95.965489 218.625 95.71875 C 218.05457 95.471985 217.11875 94.672872 216.54492 93.943359 C 215.97108 93.213846 215.5 92.349621 215.5 92.023438 C 215.5 91.697226 215.18616 90.791542 214.80078 90.009766 C 214.33315 89.061142 214.16388 87.529804 214.29297 85.40625 C 214.39936 83.656197 214.57993 81.6731 214.69336 81 C 214.80682 80.3269 215.49126 78.467257 216.21484 76.867188 C 216.93843 75.267121 217.89997 73.664592 218.35156 73.304688 C 218.80318 72.944763 220.27295 72.096687 221.61914 71.421875 C 223.14631 70.656353 223.9963 70.379335 225.19922 70.396484 z M 198.49414 70.806641 C 199.69553 70.847861 200.52564 71.115518 201.55469 71.722656 C 202.53618 72.301748 203.33984 73.086584 203.33984 73.466797 C 203.33984 73.847006 201.743 75.861668 199.79102 77.945312 C 197.83903 80.02897 195.88406 82.395406 195.44727 83.203125 C 195.01045 84.01084 194.3659 85.813945 194.01562 87.210938 C 193.49412 89.290992 193.49414 89.88972 194.01367 90.515625 C 194.36245 90.935965 194.84585 91.28125 195.08789 91.28125 C 195.32993 91.28125 196.38548 91.847385 197.43359 92.541016 C 199.22901 93.729163 199.56863 93.783102 203.30664 93.457031 C 207.04741 93.130707 207.32994 93.174439 208.24414 94.228516 C 208.77745 94.843411 209.21484 95.763908 209.21484 96.273438 C 209.21484 96.782924 208.66379 97.748338 207.99219 98.419922 C 207.3206 99.091502 206.10949 99.68755 205.30078 99.744141 C 204.49208 99.800834 203.83061 100.0567 203.83008 100.3125 C 203.82959 100.56826 203.5761 100.52345 203.26562 100.21289 C 202.87722 99.82453 202.41887 99.799862 201.79688 100.13281 C 201.17385 100.46624 200.89258 100.44938 200.89258 100.08008 C 200.89258 99.7855 200.67162 99.681255 200.40234 99.847656 C 200.13309 100.01407 199.91211 99.902413 199.91211 99.601562 C 199.91211 99.300562 199.68334 99.197406 199.40234 99.371094 C 199.1213 99.544763 198.62553 99.476426 198.30078 99.220703 C 197.97601 98.96498 197.37809 98.763275 196.97266 98.771484 C 196.56723 98.779421 195.3279 98.213856 194.21875 97.513672 C 193.1096 96.813496 191.7583 95.675265 191.21484 94.984375 C 190.67141 94.293485 190.03714 93.720748 189.80664 93.710938 C 189.5762 93.701111 188.76617 92.874836 188.00586 91.875 C 187.04772 90.615011 186.68436 89.644004 186.82031 88.710938 C 186.92822 87.970536 186.8339 87.363281 186.61133 87.363281 C 186.38871 87.363281 186.20703 87.130793 186.20703 86.845703 C 186.20703 86.560613 186.42604 86.462505 186.69531 86.628906 C 186.98834 86.809983 187.18555 86.198762 187.18555 85.103516 C 187.18555 84.097099 187.43956 82.486842 187.75 81.525391 C 188.06041 80.563939 188.62933 78.868162 189.01562 77.757812 C 189.4137 76.613679 190.76088 74.712781 192.12305 73.371094 C 194.30625 71.22072 194.76647 70.988006 197.14844 70.835938 C 197.6525 70.803774 198.09368 70.792901 198.49414 70.806641 z M 107.92969 83.1875 C 107.7966 83.207579 107.71289 83.27487 107.71289 83.382812 C 107.71289 83.598699 107.86149 83.922085 108.04102 84.101562 C 108.22051 84.281052 108.54905 84.427734 108.77344 84.427734 C 108.99783 84.427734 109.18164 84.230711 109.18164 83.990234 C 109.18164 83.749856 108.85111 83.426453 108.44727 83.271484 C 108.24533 83.194004 108.06278 83.167421 107.92969 83.1875 z M 163.68945 83.1875 C 163.55636 83.207579 163.47461 83.27487 163.47461 83.382812 C 163.47461 83.598699 163.62122 83.922085 163.80078 84.101562 C 163.98027 84.281052 164.31077 84.427734 164.53516 84.427734 C 164.75955 84.427734 164.94336 84.230711 164.94336 83.990234 C 164.94336 83.749856 164.61283 83.426453 164.20898 83.271484 C 164.00705 83.194004 163.82254 83.167421 163.68945 83.1875 z M 7.40625 106.07031 L 292.58203 106.07031 L 278.32422 167.9043 L 264.3418 229.80273 L 207.10547 257.20898 L 149.99414 284.86914 L 92.882812 257.20898 L 35.648438 229.80273 L 21.664062 167.9043 L 7.40625 106.07031 z "
     transform="scale(0.26458334)" />
  <g
     id="layer1"
     transform="translate(-30.986738,-69.887723)" />
  <path
     style="fill:#000000;stroke-width:0.0846667"
     d="m 29.725134,58.698211 c 0.05306,0.07199 0.586845,-0.09066 0.978645,0.07818 0.3918,0.168847 0.850559,0.371284 1.019468,0.449861 0.168907,0.07858 0.336022,0.218223 0.371364,0.310322 0.03534,0.09211 -0.09439,0.314484 -0.288289,0.494186 -0.349051,0.323489 -0.371997,0.326344 -2.314168,0.287964 -1.879904,-0.03716 -1.98725,-0.05383 -2.576843,-0.400407 -0.401316,-0.235901 -0.61522,-0.449806 -0.61522,-0.61522 0,-0.139468 0.06902,-0.253581 0.153388,-0.253581 0.08436,0 0.407966,-0.123238 0.71912,-0.273866 0.311154,-0.150621 0.598772,-0.24083 0.639154,-0.200449 0.04038,0.04038 0.143369,0.0034 0.228869,-0.08232 1.13166,0.194972 0.88685,0.219296 1.684512,0.205324 z"
     id="path962"
     sodipodi:nodetypes="cscsssssssscc" />
  <path
     style="fill:#000000;stroke-width:0.0846667"
     d="m 20.890875,58.698211 c 0.05306,0.07199 0.586845,-0.09066 0.978645,0.07818 0.3918,0.168847 0.850559,0.371284 1.019467,0.449861 0.168908,0.07858 0.336022,0.218223 0.371365,0.310322 0.03534,0.09211 -0.09439,0.314484 -0.28829,0.494186 -0.34905,0.323489 -0.371996,0.326344 -2.314168,0.287964 -1.879904,-0.03716 -1.987249,-0.05383 -2.576843,-0.400407 -0.401316,-0.235901 -0.61522,-0.449806 -0.61522,-0.61522 0,-0.139468 0.06902,-0.253581 0.153389,-0.253581 0.08436,0 0.407965,-0.123238 0.71912,-0.273866 0.311153,-0.150621 0.598771,-0.24083 0.639153,-0.200449 0.04038,0.04038 0.14337,0.0034 0.22887,-0.08232 1.13166,0.194972 0.886849,0.219296 1.684512,0.205324 z"
     id="path964"
     sodipodi:nodetypes="cscsssssssscc" />
  <path
     style="fill:#000000;stroke-width:0.0846667"
     d="m 52.835691,58.698211 c 0.05307,0.07199 0.586846,-0.09066 0.978646,0.07818 0.391799,0.168847 0.850559,0.371284 1.019466,0.449861 0.168908,0.07858 0.336023,0.218223 0.371365,0.310322 0.03534,0.09211 -0.09439,0.314484 -0.288289,0.494186 -0.34905,0.323489 -0.371996,0.326344 -2.314168,0.287964 -1.879905,-0.03716 -1.987249,-0.05383 -2.576843,-0.400407 -0.401316,-0.235901 -0.61522,-0.449806 -0.61522,-0.61522 0,-0.139468 0.06902,-0.253581 0.153388,-0.253581 0.08436,0 0.407966,-0.123238 0.71912,-0.273866 0.311153,-0.150621 0.598772,-0.24083 0.639154,-0.200449 0.04038,0.04038 0.14337,0.0034 0.22887,-0.08232 1.13166,0.194972 0.886849,0.219296 1.684511,0.205324 z"
     id="path970"
     sodipodi:nodetypes="cscsssssssscc" />
  <path
     style="fill:#000000;stroke-width:0.0846667"
     d="m 60.601066,58.698211 c 0.05307,0.07199 0.586847,-0.09066 0.978647,0.07818 0.391799,0.168847 0.850559,0.371284 1.019465,0.449861 0.168909,0.07858 0.336023,0.218223 0.371366,0.310322 0.03534,0.09211 -0.09439,0.314484 -0.28829,0.494186 -0.349049,0.323489 -0.371995,0.326344 -2.314167,0.287964 -1.879905,-0.03716 -1.98725,-0.05383 -2.576843,-0.400407 -0.401316,-0.235901 -0.61522,-0.449806 -0.61522,-0.61522 0,-0.139468 0.06903,-0.253581 0.153388,-0.253581 0.08436,0 0.407966,-0.123238 0.71912,-0.273866 0.311153,-0.150621 0.598772,-0.24083 0.639153,-0.200449 0.04038,0.04038 0.143371,0.0034 0.228871,-0.08232 1.13166,0.194972 0.886849,0.219296 1.68451,0.205324 z"
     id="path972"
     sodipodi:nodetypes="cscsssssssscc" />
  <path
     style="fill:#000000;stroke-width:0.0846667"
     d="m 37.056587,58.698211 c 0.05306,0.07199 0.586845,-0.09066 0.978645,0.07818 0.3918,0.168847 0.850559,0.371284 1.019467,0.449861 0.168908,0.07858 0.336022,0.218223 0.371365,0.310322 0.03534,0.09211 -0.09439,0.314484 -0.28829,0.494186 -0.34905,0.323489 -0.371996,0.326344 -2.314167,0.287964 -1.879904,-0.03716 -1.98725,-0.05383 -2.576843,-0.400407 -0.401316,-0.235901 -0.61522,-0.449806 -0.61522,-0.61522 0,-0.139468 0.06902,-0.253581 0.153388,-0.253581 0.08436,0 0.407966,-0.123238 0.71912,-0.273866 0.311154,-0.150621 0.598772,-0.24083 0.639154,-0.200449 0.04038,0.04038 0.143369,0.0034 0.228869,-0.08232 1.13166,0.194972 0.88685,0.219296 1.684512,0.205324 z"
     id="path976"
     sodipodi:nodetypes="cscsssssssscc" />
  <path
     style="fill:#db4a32;fill-opacity:1;stroke-width:0.0846667"
     d="m 44.320317,63.290527 c -0.16209,0.0482 -0.376035,-0.0091 -0.544954,-0.145817 -0.152961,-0.12385 -0.246713,-0.256578 -0.208351,-0.294938 0.03835,-0.03837 0.0018,-0.196601 -0.08112,-0.351646 -0.09381,-0.175278 -0.147011,-0.90205 -0.140663,-1.921515 0.0057,-0.901789 -0.03321,-1.698513 -0.08628,-1.770498 -0.05306,-0.07199 -0.41705,-0.269028 -0.808849,-0.437875 -0.391799,-0.168847 -0.85056,-0.371285 -1.019468,-0.449861 -0.168907,-0.07858 -0.336022,-0.218223 -0.371365,-0.310322 -0.03534,-0.09211 0.09439,-0.314485 0.28829,-0.494186 0.34905,-0.323489 0.371997,-0.326345 2.314168,-0.287964 1.879904,0.03716 1.98725,0.05383 2.576844,0.400406 0.401315,0.235901 0.61522,0.449806 0.61522,0.61522 0,0.139468 -0.06902,0.253582 -0.153389,0.253582 -0.08436,0 -0.407966,0.123237 -0.71912,0.273866 -0.311153,0.150621 -0.598772,0.240829 -0.639153,0.200448 -0.04038,-0.04038 -0.14337,-0.0034 -0.22887,0.08232 -0.100598,0.100765 -0.14389,0.512265 -0.122688,1.165998 0.01802,0.555646 -0.0104,1.414871 -0.0633,1.909385 -0.06255,0.585423 -0.04826,0.947485 0.04097,1.037745 0.09667,0.09778 0.06071,0.183947 -0.121998,0.292457 -0.142467,0.08461 -0.379125,0.189551 -0.525895,0.233205 z"
     id="path988" />
  <path
     style="fill:#000000;stroke-width:0.0846667"
     d="m 20.890875,33.012911 c 0.05306,0.07199 0.586845,-0.09066 0.978645,0.07818 0.3918,0.168848 0.850559,0.371285 1.019467,0.449861 0.168908,0.07858 0.336022,0.218223 0.371365,0.310323 0.03534,0.09211 -0.09439,0.314484 -0.28829,0.494187 -0.34905,0.323489 -0.371996,0.326342 -2.314168,0.287963 -1.879904,-0.03716 -1.987249,-0.05383 -2.576843,-0.400406 -0.401316,-0.235903 -0.61522,-0.449806 -0.61522,-0.615221 0,-0.139469 0.06902,-0.253581 0.153389,-0.253581 0.08436,0 0.407965,-0.123238 0.71912,-0.273867 0.311153,-0.15062 0.598771,-0.24083 0.639153,-0.200448 0.04038,0.04038 0.14337,0.0034 0.22887,-0.08232 1.13166,0.194973 0.886849,0.219297 1.684512,0.205325 z"
     id="path916"
     sodipodi:nodetypes="cscsssssssscc" />
  <path
     style="fill:#000000;stroke-width:0.0846667"
     d="m 12.292172,33.012911 c 0.05307,0.07199 0.586847,-0.09066 0.978646,0.07818 0.391799,0.168848 0.85056,0.371285 1.019466,0.449861 0.168909,0.07858 0.336023,0.218223 0.371366,0.310323 0.03534,0.09211 -0.09439,0.314484 -0.28829,0.494187 -0.349049,0.323489 -0.371996,0.326342 -2.314167,0.287963 -1.879905,-0.03716 -1.98725,-0.05383 -2.5768435,-0.400406 -0.4013161,-0.235903 -0.6152202,-0.449806 -0.6152202,-0.615221 0,-0.139469 0.069021,-0.253581 0.1533886,-0.253581 0.084366,0 0.4079655,-0.123238 0.7191197,-0.273867 0.3111534,-0.15062 0.5987724,-0.24083 0.6391534,-0.200448 0.04039,0.04038 0.14337,0.0034 0.22887,-0.08232 1.13166,0.194973 0.88685,0.219297 1.684511,0.205325 z"
     id="path918"
     sodipodi:nodetypes="cscsssssssscc" />
  <path
     style="fill:#000000;stroke-width:0.0846667"
     d="m 52.835691,33.012911 c 0.05307,0.07199 0.586846,-0.09066 0.978646,0.07818 0.391799,0.168848 0.850559,0.371285 1.019466,0.449861 0.168908,0.07858 0.336023,0.218223 0.371365,0.310323 0.03534,0.09211 -0.09439,0.314484 -0.288289,0.494187 -0.34905,0.323489 -0.371996,0.326342 -2.314168,0.287963 -1.879905,-0.03716 -1.987249,-0.05383 -2.576843,-0.400406 -0.401316,-0.235903 -0.61522,-0.449806 -0.61522,-0.615221 0,-0.139469 0.06902,-0.253581 0.153388,-0.253581 0.08436,0 0.407966,-0.123238 0.71912,-0.273867 0.311153,-0.15062 0.598772,-0.24083 0.639154,-0.200448 0.04038,0.04038 0.14337,0.0034 0.22887,-0.08232 1.13166,0.194973 0.886849,0.219297 1.684511,0.205325 z"
     id="path922"
     sodipodi:nodetypes="cscsssssssscc" />
  <path
     style="fill:#000000;stroke-width:0.0846667"
     d="m 60.601066,33.012911 c 0.05307,0.07199 0.586847,-0.09066 0.978647,0.07818 0.391799,0.168848 0.850559,0.371285 1.019465,0.449861 0.168909,0.07858 0.336023,0.218223 0.371366,0.310323 0.03534,0.09211 -0.09439,0.314484 -0.28829,0.494187 -0.349049,0.323489 -0.371995,0.326342 -2.314167,0.287963 -1.879905,-0.03716 -1.98725,-0.05383 -2.576843,-0.400406 -0.401316,-0.235903 -0.61522,-0.449806 -0.61522,-0.615221 0,-0.139469 0.06903,-0.253581 0.153388,-0.253581 0.08436,0 0.407966,-0.123238 0.71912,-0.273867 0.311153,-0.15062 0.598772,-0.24083 0.639153,-0.200448 0.04038,0.04038 0.143371,0.0034 0.228871,-0.08232 1.13166,0.194973 0.886849,0.219297 1.68451,0.205325 z"
     id="path924"
     sodipodi:nodetypes="cscsssssssscc" />
  <path
     style="fill:#000000;stroke-width:0.0846667"
     d="m 68.131992,33.012911 c 0.05306,0.07199 0.586846,-0.09066 0.978646,0.07818 0.3918,0.168848 0.850559,0.371285 1.019466,0.449861 0.168908,0.07858 0.336022,0.218223 0.371365,0.310323 0.03534,0.09211 -0.09439,0.314484 -0.28829,0.494187 -0.349049,0.323489 -0.371995,0.326342 -2.314167,0.287963 -1.879904,-0.03716 -1.98725,-0.05383 -2.576842,-0.400406 -0.401317,-0.235903 -0.615221,-0.449806 -0.615221,-0.615221 0,-0.139469 0.06902,-0.253581 0.153389,-0.253581 0.08436,0 0.407965,-0.123238 0.71912,-0.273867 0.311153,-0.15062 0.598771,-0.24083 0.639152,-0.200448 0.04038,0.04038 0.143371,0.0034 0.228871,-0.08232 1.13166,0.194973 0.886849,0.219297 1.684511,0.205325 z"
     id="path926"
     sodipodi:nodetypes="cscsssssssscc" />
  <path
     style="fill:#000000;stroke-width:0.0846667"
     d="m 37.056587,33.012911 c 0.05306,0.07199 0.586845,-0.09066 0.978645,0.07818 0.3918,0.168848 0.850559,0.371285 1.019467,0.449861 0.168908,0.07858 0.336022,0.218223 0.371365,0.310323 0.03534,0.09211 -0.09439,0.314484 -0.28829,0.494187 -0.34905,0.323489 -0.371996,0.326342 -2.314167,0.287963 -1.879904,-0.03716 -1.98725,-0.05383 -2.576843,-0.400406 -0.401316,-0.235903 -0.61522,-0.449806 -0.61522,-0.615221 0,-0.139469 0.06902,-0.253581 0.153388,-0.253581 0.08436,0 0.407966,-0.123238 0.71912,-0.273867 0.311154,-0.15062 0.598772,-0.24083 0.639154,-0.200448 0.04038,0.04038 0.143369,0.0034 0.228869,-0.08232 1.13166,0.194973 0.88685,0.219297 1.684512,0.205325 z"
     id="path928"
     sodipodi:nodetypes="cscsssssssscc" />
  <path
     style="fill:#db4a32;fill-opacity:1;stroke-width:0.0846667"
     d="m 44.320317,36.234125 c -0.16209,0.0482 -0.376035,-0.0091 -0.544954,-0.145816 -0.152961,-0.12385 -0.246713,-0.256578 -0.208351,-0.294938 0.03835,-0.03837 0.0018,-0.196601 -0.08112,-0.351646 -0.09381,-0.175279 -0.147011,-0.90205 -0.140663,-1.921515 0.0057,-0.90179 -0.03321,-1.698514 -0.08628,-1.770498 -0.05306,-0.07199 -0.41705,-0.269028 -0.808849,-0.437876 -0.391799,-0.168847 -0.85056,-0.371284 -1.019468,-0.44986 -0.168907,-0.07859 -0.336022,-0.218223 -0.371365,-0.310323 -0.03534,-0.09211 0.09439,-0.314484 0.28829,-0.494186 0.34905,-0.323489 0.371997,-0.326344 2.314168,-0.287964 1.879904,0.03716 1.98725,0.05383 2.576844,0.400407 0.401315,0.235901 0.61522,0.449806 0.61522,0.61522 0,0.139468 -0.06902,0.253581 -0.153389,0.253581 -0.08436,0 -0.407966,0.123238 -0.71912,0.273866 -0.311153,0.150621 -0.598772,0.24083 -0.639153,0.200449 -0.04038,-0.04038 -0.14337,-0.0034 -0.22887,0.08232 -0.100598,0.100766 -0.14389,0.512266 -0.122688,1.165999 0.01802,0.555645 -0.0104,1.414871 -0.0633,1.909384 -0.06255,0.585424 -0.04826,0.947486 0.04097,1.037745 0.09667,0.09778 0.06071,0.183948 -0.121998,0.292458 -0.142467,0.08461 -0.379125,0.18955 -0.525895,0.233204 z"
     id="path982" />
  <path
     style="fill:#db4a32;fill-opacity:1;stroke-width:0.0846667"
     d="m 32.002772,37.555658 c -0.271348,0.179865 -0.291421,0.17424 -0.291421,-0.08166 0,-0.151156 -0.05828,-0.274839 -0.129525,-0.274839 -0.07124,0 -0.129526,-0.08196 -0.129526,-0.182156 0,-0.116216 -0.09053,-0.158479 -0.250082,-0.116751 -0.137541,0.03596 -0.281425,0.147072 -0.319734,0.246915 -0.0383,0.09983 -0.158909,0.181516 -0.268,0.181516 -0.109088,0 -0.198345,0.06633 -0.198345,0.147408 0,0.1043 -0.252546,0.121525 -0.863704,0.05892 -0.475037,-0.04868 -0.92674,-0.127889 -1.003782,-0.17604 -0.07704,-0.04816 -0.256647,-0.104729 -0.399119,-0.125731 -0.142467,-0.02101 -0.404752,-0.154341 -0.582843,-0.296316 -0.178091,-0.141977 -0.447286,-0.311556 -0.598212,-0.376839 -0.150927,-0.06529 -0.398634,-0.276622 -0.55046,-0.469638 -0.15183,-0.193017 -0.276049,-0.421554 -0.276049,-0.507856 0,-0.08631 -0.08342,-0.326149 -0.185386,-0.532994 -0.123727,-0.25099 -0.16836,-0.656103 -0.134205,-1.21796 0.02815,-0.463035 0.07574,-0.987591 0.105751,-1.165682 0.03002,-0.178091 0.211213,-0.670179 0.40266,-1.09353 0.191447,-0.423352 0.445845,-0.847639 0.565329,-0.942863 0.119489,-0.09523 0.508664,-0.319217 0.864844,-0.497761 0.538751,-0.270058 0.758355,-0.310888 1.306512,-0.242906 0.474482,0.05884 0.770453,0.185963 1.05742,0.454155 0.268044,0.250511 0.376911,0.455025 0.332538,0.624707 -0.03628,0.138749 -0.249843,0.321203 -0.474578,0.405462 -0.224735,0.08426 -0.539748,0.215447 -0.700029,0.29153 -0.16028,0.07609 -0.29142,0.18677 -0.29142,0.24597 0,0.05921 -0.08631,0.107635 -0.191813,0.107635 -0.105492,0 -0.228382,0.14571 -0.273082,0.323799 -0.0447,0.17809 -0.128714,0.323801 -0.186703,0.323801 -0.058,0 -0.175541,0.212427 -0.261229,0.472058 -0.09241,0.280007 -0.128103,0.816981 -0.08775,1.319863 0.04892,0.609428 0.133273,0.895495 0.300025,1.017422 0.127583,0.09329 0.370374,0.169623 0.539532,0.169623 0.169159,0 0.420297,-0.06034 0.558085,-0.134084 0.13927,-0.07453 0.250527,-0.270105 0.250527,-0.440368 0,-0.177355 -0.190832,-0.497124 -0.453322,-0.759612 -0.266617,-0.266618 -0.451624,-0.578679 -0.449202,-0.757693 0.0023,-0.167405 0.08166,-0.406521 0.176423,-0.531367 0.125227,-0.164977 0.277546,-0.205946 0.557505,-0.149948 0.21186,0.04238 0.594916,0.01914 0.851237,-0.05163 0.387411,-0.106977 0.500798,-0.09027 0.672076,0.09899 0.127262,0.140631 0.324093,0.205101 0.514837,0.168637 0.264724,-0.0506 0.349304,0.03061 0.592617,0.569047 0.156102,0.345439 0.344225,1.083259 0.418051,1.639598 0.09529,0.718132 0.09345,1.093807 -0.0064,1.295201 -0.07731,0.156023 -0.158162,0.393282 -0.179642,0.527243 -0.02148,0.133962 -0.170196,0.330495 -0.330478,0.43674 z"
     id="path990" />
  <path
     style="fill:#000000;stroke-width:0.0846667"
     d="m 20.890875,50.415363 c 0.05306,0.07199 0.586845,-0.09066 0.978645,0.07818 0.3918,0.168848 0.850559,0.371286 1.019467,0.449861 0.168908,0.07859 0.336022,0.218224 0.371365,0.310324 0.03534,0.09211 -0.09439,0.314484 -0.28829,0.494186 -0.34905,0.323489 -0.371996,0.326344 -2.314168,0.287963 -1.879904,-0.03716 -1.987249,-0.05383 -2.576843,-0.400406 -0.401316,-0.235902 -0.61522,-0.449806 -0.61522,-0.61522 0,-0.139469 0.06902,-0.253581 0.153389,-0.253581 0.08436,0 0.407965,-0.123239 0.71912,-0.273866 0.311153,-0.150622 0.598771,-0.240831 0.639153,-0.200449 0.04038,0.04038 0.14337,0.0034 0.22887,-0.08232 1.13166,0.194973 0.886849,0.219297 1.684512,0.205325 z"
     id="path948"
     sodipodi:nodetypes="cscsssssssscc" />
  <path
     style="fill:#000000;stroke-width:0.0846667"
     d="m 12.292172,50.415363 c 0.05307,0.07199 0.586847,-0.09066 0.978646,0.07818 0.391799,0.168848 0.85056,0.371286 1.019466,0.449861 0.168909,0.07859 0.336023,0.218224 0.371366,0.310324 0.03534,0.09211 -0.09439,0.314484 -0.28829,0.494186 -0.349049,0.323489 -0.371996,0.326344 -2.314167,0.287963 -1.879905,-0.03716 -1.98725,-0.05383 -2.5768435,-0.400406 -0.4013161,-0.235902 -0.6152202,-0.449806 -0.6152202,-0.61522 0,-0.139469 0.069021,-0.253581 0.1533886,-0.253581 0.084366,0 0.4079655,-0.123239 0.7191197,-0.273866 0.3111534,-0.150622 0.5987724,-0.240831 0.6391534,-0.200449 0.04039,0.04038 0.14337,0.0034 0.22887,-0.08232 1.13166,0.194973 0.88685,0.219297 1.684511,0.205325 z"
     id="path950"
     sodipodi:nodetypes="cscsssssssscc" />
  <path
     style="fill:#000000;stroke-width:0.0846667"
     d="m 52.835691,50.415363 c 0.05307,0.07199 0.586846,-0.09066 0.978646,0.07818 0.391799,0.168848 0.850559,0.371286 1.019466,0.449861 0.168908,0.07859 0.336023,0.218224 0.371365,0.310324 0.03534,0.09211 -0.09439,0.314484 -0.288289,0.494186 -0.34905,0.323489 -0.371996,0.326344 -2.314168,0.287963 -1.879905,-0.03716 -1.987249,-0.05383 -2.576843,-0.400406 -0.401316,-0.235902 -0.61522,-0.449806 -0.61522,-0.61522 0,-0.139469 0.06902,-0.253581 0.153388,-0.253581 0.08436,0 0.407966,-0.123239 0.71912,-0.273866 0.311153,-0.150622 0.598772,-0.240831 0.639154,-0.200449 0.04038,0.04038 0.14337,0.0034 0.22887,-0.08232 1.13166,0.194973 0.886849,0.219297 1.684511,0.205325 z"
     id="path954"
     sodipodi:nodetypes="cscsssssssscc" />
  <path
     style="fill:#000000;stroke-width:0.0846667"
     d="m 60.601066,50.415363 c 0.05307,0.07199 0.586847,-0.09066 0.978647,0.07818 0.391799,0.168848 0.850559,0.371286 1.019465,0.449861 0.168909,0.07859 0.336023,0.218224 0.371366,0.310324 0.03534,0.09211 -0.09439,0.314484 -0.28829,0.494186 -0.349049,0.323489 -0.371995,0.326344 -2.314167,0.287963 -1.879905,-0.03716 -1.98725,-0.05383 -2.576843,-0.400406 -0.401316,-0.235902 -0.61522,-0.449806 -0.61522,-0.61522 0,-0.139469 0.06903,-0.253581 0.153388,-0.253581 0.08436,0 0.407966,-0.123239 0.71912,-0.273866 0.311153,-0.150622 0.598772,-0.240831 0.639153,-0.200449 0.04038,0.04038 0.143371,0.0034 0.228871,-0.08232 1.13166,0.194973 0.886849,0.219297 1.68451,0.205325 z"
     id="path956"
     sodipodi:nodetypes="cscsssssssscc" />
  <path
     style="fill:#000000;stroke-width:0.0846667"
     d="m 68.131992,50.415363 c 0.05306,0.07199 0.586846,-0.09066 0.978646,0.07818 0.3918,0.168848 0.850559,0.371286 1.019466,0.449861 0.168908,0.07859 0.336022,0.218224 0.371365,0.310324 0.03534,0.09211 -0.09439,0.314484 -0.28829,0.494186 -0.349049,0.323489 -0.371995,0.326344 -2.314167,0.287963 -1.879904,-0.03716 -1.98725,-0.05383 -2.576842,-0.400406 -0.401317,-0.235902 -0.615221,-0.449806 -0.615221,-0.61522 0,-0.139469 0.06902,-0.253581 0.153389,-0.253581 0.08436,0 0.407965,-0.123239 0.71912,-0.273866 0.311153,-0.150622 0.598771,-0.240831 0.639152,-0.200449 0.04038,0.04038 0.143371,0.0034 0.228871,-0.08232 1.13166,0.194973 0.886849,0.219297 1.684511,0.205325 z"
     id="path958"
     sodipodi:nodetypes="cscsssssssscc" />
  <path
     style="fill:#000000;stroke-width:0.0846667"
     d="m 37.056587,50.415363 c 0.05306,0.07199 0.586845,-0.09066 0.978645,0.07818 0.3918,0.168848 0.850559,0.371286 1.019467,0.449861 0.168908,0.07859 0.336022,0.218224 0.371365,0.310324 0.03534,0.09211 -0.09439,0.314484 -0.28829,0.494186 -0.34905,0.323489 -0.371996,0.326344 -2.314167,0.287963 -1.879904,-0.03716 -1.98725,-0.05383 -2.576843,-0.400406 -0.401316,-0.235902 -0.61522,-0.449806 -0.61522,-0.61522 0,-0.139469 0.06902,-0.253581 0.153388,-0.253581 0.08436,0 0.407966,-0.123239 0.71912,-0.273866 0.311154,-0.150622 0.598772,-0.240831 0.639154,-0.200449 0.04038,0.04038 0.143369,0.0034 0.228869,-0.08232 1.13166,0.194973 0.88685,0.219297 1.684512,0.205325 z"
     id="path960"
     sodipodi:nodetypes="cscsssssssscc" />
  <path
     style="fill:#db4a32;fill-opacity:1;stroke-width:0.0846667"
     d="m 44.320317,54.541434 c -0.16209,0.0482 -0.376035,-0.0091 -0.544954,-0.145817 -0.152961,-0.12385 -0.246713,-0.256577 -0.208351,-0.294938 0.03835,-0.03837 0.0018,-0.1966 -0.08112,-0.351645 -0.09381,-0.175279 -0.147011,-0.902051 -0.140663,-1.921516 0.0057,-0.901789 -0.03321,-1.698513 -0.08628,-1.770497 -0.05306,-0.07199 -0.41705,-0.269029 -0.808849,-0.437876 -0.391799,-0.168847 -0.85056,-0.371284 -1.019468,-0.449861 -0.168907,-0.07858 -0.336022,-0.218223 -0.371365,-0.310322 -0.03534,-0.09211 0.09439,-0.314484 0.28829,-0.494186 0.34905,-0.323489 0.371997,-0.326344 2.314168,-0.287964 1.879904,0.03716 1.98725,0.05383 2.576844,0.400406 0.401315,0.235902 0.61522,0.449806 0.61522,0.61522 0,0.139469 -0.06902,0.253582 -0.153389,0.253582 -0.08436,0 -0.407966,0.123237 -0.71912,0.273866 -0.311153,0.150621 -0.598772,0.24083 -0.639153,0.200448 -0.04038,-0.04038 -0.14337,-0.0034 -0.22887,0.08232 -0.100598,0.100766 -0.14389,0.512265 -0.122688,1.165999 0.01802,0.555645 -0.0104,1.41487 -0.0633,1.909384 -0.06255,0.585424 -0.04826,0.947485 0.04097,1.037745 0.09667,0.09778 0.06071,0.183948 -0.121998,0.292457 -0.142467,0.08461 -0.379125,0.189551 -0.525895,0.233205 z"
     id="path986" />
  <path
     style="fill:#db4a32;fill-opacity:1;stroke-width:0.0846667"
     d="m 32.002772,55.063365 c -0.271348,0.179866 -0.291421,0.174241 -0.291421,-0.08166 0,-0.151157 -0.05828,-0.274839 -0.129525,-0.274839 -0.07124,0 -0.129526,-0.08196 -0.129526,-0.182156 0,-0.116216 -0.09053,-0.15848 -0.250082,-0.116752 -0.137541,0.03596 -0.281425,0.147072 -0.319734,0.246915 -0.0383,0.09983 -0.158909,0.181516 -0.268,0.181516 -0.109088,0 -0.198345,0.06633 -0.198345,0.147408 0,0.104299 -0.252546,0.121524 -0.863704,0.05893 -0.475037,-0.04868 -0.92674,-0.127889 -1.003782,-0.176041 -0.07704,-0.04816 -0.256647,-0.104728 -0.399119,-0.125732 -0.142467,-0.02101 -0.404752,-0.154339 -0.582843,-0.296316 -0.178091,-0.141977 -0.447286,-0.311555 -0.598212,-0.376839 -0.150927,-0.06529 -0.398634,-0.276621 -0.55046,-0.469638 -0.15183,-0.193016 -0.276049,-0.421552 -0.276049,-0.507855 0,-0.08631 -0.08342,-0.326149 -0.185386,-0.532994 -0.123727,-0.25099 -0.16836,-0.656103 -0.134205,-1.21796 0.02815,-0.463035 0.07574,-0.987592 0.105751,-1.165683 0.03002,-0.178091 0.211213,-0.670178 0.40266,-1.09353 0.191447,-0.423351 0.445845,-0.847638 0.565329,-0.942862 0.119489,-0.09523 0.508664,-0.319217 0.864844,-0.497761 0.538751,-0.270059 0.758355,-0.310888 1.306512,-0.242907 0.474482,0.05884 0.770453,0.185964 1.05742,0.454156 0.268044,0.25051 0.376911,0.455024 0.332538,0.624707 -0.03628,0.138749 -0.249843,0.321202 -0.474578,0.405462 -0.224735,0.08426 -0.539748,0.215448 -0.700029,0.291531 -0.16028,0.07609 -0.29142,0.18677 -0.29142,0.245969 0,0.05921 -0.08631,0.107635 -0.191813,0.107635 -0.105492,0 -0.228382,0.14571 -0.273082,0.3238 -0.0447,0.17809 -0.128714,0.3238 -0.186703,0.3238 -0.058,0 -0.175541,0.212427 -0.261229,0.472058 -0.09241,0.280008 -0.128103,0.81698 -0.08775,1.319863 0.04892,0.609428 0.133273,0.895495 0.300025,1.017423 0.127583,0.09329 0.370374,0.169621 0.539532,0.169621 0.169159,0 0.420297,-0.06034 0.558085,-0.134083 0.13927,-0.07453 0.250527,-0.270106 0.250527,-0.440368 0,-0.177355 -0.190832,-0.497125 -0.453322,-0.759612 -0.266617,-0.266619 -0.451624,-0.578679 -0.449202,-0.757694 0.0023,-0.167405 0.08166,-0.40652 0.176423,-0.531366 0.125227,-0.164977 0.277546,-0.205946 0.557505,-0.149949 0.21186,0.04238 0.594916,0.01914 0.851237,-0.05163 0.387411,-0.106977 0.500798,-0.09027 0.672076,0.09899 0.127262,0.140631 0.324093,0.205102 0.514837,0.168638 0.264724,-0.0506 0.349304,0.03061 0.592617,0.569046 0.156102,0.345439 0.344225,1.08326 0.418051,1.639599 0.09529,0.718132 0.09345,1.093806 -0.0064,1.295201 -0.07731,0.156023 -0.158162,0.393282 -0.179642,0.527242 -0.02148,0.133962 -0.170196,0.330495 -0.330478,0.436741 z"
     id="path992" />
  <path
     style="fill:#000000;stroke-width:0.0846667"
     d="m 29.725134,41.781057 c 0.05306,0.07199 0.586845,-0.09066 0.978645,0.07818 0.3918,0.168848 0.850559,0.371286 1.019468,0.449861 0.168907,0.07858 0.336022,0.218224 0.371364,0.310323 0.03534,0.09211 -0.09439,0.314485 -0.288289,0.494186 -0.349051,0.323489 -0.371997,0.326345 -2.314168,0.287964 -1.879904,-0.03716 -1.98725,-0.05383 -2.576843,-0.400406 -0.401316,-0.235902 -0.61522,-0.449806 -0.61522,-0.61522 0,-0.139469 0.06902,-0.253582 0.153388,-0.253582 0.08436,0 0.407966,-0.123238 0.71912,-0.273866 0.311154,-0.150621 0.598772,-0.24083 0.639154,-0.200448 0.04038,0.04038 0.143369,0.0034 0.228869,-0.08232 1.13166,0.194973 0.88685,0.219296 1.684512,0.205325 z"
     id="path930"
     sodipodi:nodetypes="cscsssssssscc" />
  <path
     style="fill:#000000;stroke-width:0.0846667"
     d="m 12.292172,41.781057 c 0.05307,0.07199 0.586847,-0.09066 0.978646,0.07818 0.391799,0.168848 0.85056,0.371286 1.019466,0.449861 0.168909,0.07858 0.336023,0.218224 0.371366,0.310323 0.03534,0.09211 -0.09439,0.314485 -0.28829,0.494186 -0.349049,0.323489 -0.371996,0.326345 -2.314167,0.287964 -1.879905,-0.03716 -1.98725,-0.05383 -2.5768435,-0.400406 -0.4013161,-0.235902 -0.6152202,-0.449806 -0.6152202,-0.61522 0,-0.139469 0.069021,-0.253582 0.1533886,-0.253582 0.084366,0 0.4079655,-0.123238 0.7191197,-0.273866 0.3111534,-0.150621 0.5987724,-0.24083 0.6391534,-0.200448 0.04039,0.04038 0.14337,0.0034 0.22887,-0.08232 1.13166,0.194973 0.88685,0.219296 1.684511,0.205325 z"
     id="path934"
     sodipodi:nodetypes="cscsssssssscc" />
  <path
     style="fill:#000000;stroke-width:0.0846667"
     d="m 60.601066,41.781057 c 0.05307,0.07199 0.586847,-0.09066 0.978647,0.07818 0.391799,0.168848 0.850559,0.371286 1.019465,0.449861 0.168909,0.07858 0.336023,0.218224 0.371366,0.310323 0.03534,0.09211 -0.09439,0.314485 -0.28829,0.494186 -0.349049,0.323489 -0.371995,0.326345 -2.314167,0.287964 -1.879905,-0.03716 -1.98725,-0.05383 -2.576843,-0.400406 -0.401316,-0.235902 -0.61522,-0.449806 -0.61522,-0.61522 0,-0.139469 0.06903,-0.253582 0.153388,-0.253582 0.08436,0 0.407966,-0.123238 0.71912,-0.273866 0.311153,-0.150621 0.598772,-0.24083 0.639153,-0.200448 0.04038,0.04038 0.143371,0.0034 0.228871,-0.08232 1.13166,0.194973 0.886849,0.219296 1.68451,0.205325 z"
     id="path940"
     sodipodi:nodetypes="cscsssssssscc" />
  <path
     style="fill:#000000;stroke-width:0.0846667"
     d="m 68.131992,41.781057 c 0.05306,0.07199 0.586846,-0.09066 0.978646,0.07818 0.3918,0.168848 0.850559,0.371286 1.019466,0.449861 0.168908,0.07858 0.336022,0.218224 0.371365,0.310323 0.03534,0.09211 -0.09439,0.314485 -0.28829,0.494186 -0.349049,0.323489 -0.371995,0.326345 -2.314167,0.287964 -1.879904,-0.03716 -1.98725,-0.05383 -2.576842,-0.400406 -0.401317,-0.235902 -0.615221,-0.449806 -0.615221,-0.61522 0,-0.139469 0.06902,-0.253582 0.153389,-0.253582 0.08436,0 0.407965,-0.123238 0.71912,-0.273866 0.311153,-0.150621 0.598771,-0.24083 0.639152,-0.200448 0.04038,0.04038 0.143371,0.0034 0.228871,-0.08232 1.13166,0.194973 0.886849,0.219296 1.684511,0.205325 z"
     id="path942"
     sodipodi:nodetypes="cscsssssssscc" />
  <path
     style="fill:#000000;stroke-width:0.0846667"
     d="m 37.056587,41.781057 c 0.05306,0.07199 0.586845,-0.09066 0.978645,0.07818 0.3918,0.168848 0.850559,0.371286 1.019467,0.449861 0.168908,0.07858 0.336022,0.218224 0.371365,0.310323 0.03534,0.09211 -0.09439,0.314485 -0.28829,0.494186 -0.34905,0.323489 -0.371996,0.326345 -2.314167,0.287964 -1.879904,-0.03716 -1.98725,-0.05383 -2.576843,-0.400406 -0.401316,-0.235902 -0.61522,-0.449806 -0.61522,-0.61522 0,-0.139469 0.06902,-0.253582 0.153388,-0.253582 0.08436,0 0.407966,-0.123238 0.71912,-0.273866 0.311154,-0.150621 0.598772,-0.24083 0.639154,-0.200448 0.04038,0.04038 0.143369,0.0034 0.228869,-0.08232 1.13166,0.194973 0.88685,0.219296 1.684512,0.205325 z"
     id="path944"
     sodipodi:nodetypes="cscsssssssscc" />
  <path
     style="fill:#db4a32;fill-opacity:1;stroke-width:0.0846667"
     d="m 44.320317,45.319826 c -0.16209,0.0482 -0.376035,-0.0091 -0.544954,-0.145816 -0.152961,-0.123851 -0.246713,-0.256578 -0.208351,-0.294938 0.03835,-0.03837 0.0018,-0.196601 -0.08112,-0.351646 -0.09381,-0.175279 -0.147011,-0.90205 -0.140663,-1.921515 0.0057,-0.90179 -0.03321,-1.698514 -0.08628,-1.770498 -0.05306,-0.07199 -0.41705,-0.269029 -0.808849,-0.437876 -0.391799,-0.168847 -0.85056,-0.371284 -1.019468,-0.449861 -0.168907,-0.07858 -0.336022,-0.218223 -0.371365,-0.310322 -0.03534,-0.09211 0.09439,-0.314484 0.28829,-0.494186 0.34905,-0.323489 0.371997,-0.326344 2.314168,-0.287964 1.879904,0.03716 1.98725,0.05383 2.576844,0.400407 0.401315,0.235901 0.61522,0.449805 0.61522,0.61522 0,0.139468 -0.06902,0.253581 -0.153389,0.253581 -0.08436,0 -0.407966,0.123238 -0.71912,0.273866 -0.311153,0.150621 -0.598772,0.24083 -0.639153,0.200449 -0.04038,-0.04038 -0.14337,-0.0034 -0.22887,0.08232 -0.100598,0.100766 -0.14389,0.512266 -0.122688,1.165999 0.01802,0.555645 -0.0104,1.414871 -0.0633,1.909384 -0.06255,0.585424 -0.04826,0.947485 0.04097,1.037745 0.09667,0.09778 0.06071,0.183948 -0.121998,0.292457 -0.142467,0.08461 -0.379125,0.189551 -0.525895,0.233205 z"
     id="path984" />
  <path
     id="path994"
     style="fill:#db4a32;fill-opacity:1;stroke-width:0.0846667"
     d="m 54.499264,46.299046 c -0.200103,-0.0023 -0.517641,-0.139606 -0.705636,-0.305226 -0.187995,-0.165623 -0.381904,-0.483676 -0.430905,-0.706783 -0.049,-0.223107 -0.142895,-0.438899 -0.20865,-0.479539 -0.06575,-0.04063 -0.119552,-0.187018 -0.119552,-0.325287 0,-0.138275 -0.05828,-0.251395 -0.129526,-0.251395 -0.07124,0 -0.114946,-0.07286 -0.09714,-0.161901 0.0208,-0.104007 -0.159463,-0.175897 -0.504108,-0.201045 -0.421731,-0.03077 -0.608742,0.02781 -0.874262,0.273894 -0.185776,0.17217 -0.337774,0.375045 -0.337774,0.450833 0,0.07578 -0.07284,0.214815 -0.1619,0.308949 -0.08905,0.09413 -0.241071,0.324833 -0.337836,0.512663 -0.124234,0.241146 -0.312807,0.363724 -0.64166,0.417088 -0.331141,0.05374 -0.532941,0.01469 -0.698326,-0.134925 -0.127934,-0.115773 -0.231859,-0.36175 -0.230948,-0.546608 8.79e-4,-0.184859 0.140357,-0.773238 0.309886,-1.307509 0.169527,-0.534269 0.336787,-1.226005 0.371686,-1.53719 0.03489,-0.311185 0.134818,-0.609891 0.222022,-0.663791 0.09772,-0.06039 0.109578,-0.128286 0.0309,-0.176905 -0.07031,-0.04346 -0.09896,-0.356221 -0.06378,-0.696173 0.03514,-0.339496 0.164659,-0.72308 0.28782,-0.852408 0.123161,-0.129326 0.335057,-0.251402 0.470887,-0.271278 0.135828,-0.01987 0.266824,-0.137924 0.291102,-0.26232 0.02428,-0.124401 0.159801,-0.341845 0.30116,-0.483204 0.203529,-0.20353 0.35862,-0.239852 0.745237,-0.174534 0.268519,0.04537 0.673105,0.251352 0.899077,0.457746 0.225973,0.206395 0.446308,0.552505 0.489634,0.769136 0.04332,0.216631 0.125839,0.393876 0.183378,0.393876 0.05753,0 0.146781,0.131147 0.198325,0.291421 0.05155,0.160281 0.108705,0.407989 0.127017,0.55046 0.01831,0.142467 0.131575,0.492177 0.251701,0.777122 0.120133,0.284945 0.30575,0.616405 0.412489,0.736581 0.106732,0.120179 0.159552,0.274348 0.117364,0.342608 -0.04219,0.06826 0.01331,0.15867 0.123437,0.200911 0.110082,0.04224 0.306927,0.325197 0.437443,0.628793 0.13052,0.303595 0.276572,0.867873 0.324572,1.253954 0.0825,0.663549 0.07446,0.69202 -0.146766,0.520313 -0.222677,-0.172831 -0.223353,-0.169039 -0.01392,0.07811 0.121065,0.142881 0.179343,0.316719 0.129525,0.386329 -0.04983,0.06961 -0.169578,0.143186 -0.266122,0.163488 -0.09654,0.02031 -0.268012,-0.03796 -0.381043,-0.129526 -0.15685,-0.127032 -0.18248,-0.128102 -0.108247,-0.0046 0.06877,0.114472 -0.0093,0.160702 -0.266558,0.157808 z m -2.608842,-3.622472 c 0.05937,0 0.107941,-0.05204 0.107941,-0.115665 0,-0.0636 -0.08743,-0.149214 -0.194281,-0.190216 -0.106854,-0.041 -0.19428,-0.02781 -0.19428,0.02931 0,0.05712 0.03885,0.142727 0.08635,0.190213 0.04749,0.04749 0.13491,0.08636 0.19428,0.08636 z" />
  <path
     style="fill:#db4a32;fill-opacity:1;stroke-width:0.0846667"
     d="m 21.447066,46.331466 c -0.164844,0.08822 -0.239199,0.08395 -0.239199,-0.01376 0,-0.07794 -0.05828,-0.105708 -0.129526,-0.06168 -0.07124,0.04403 -0.129525,0.01484 -0.129525,-0.06476 0,-0.07964 -0.06084,-0.107205 -0.135185,-0.06125 -0.07436,0.04595 -0.205497,0.0282 -0.291421,-0.03947 -0.08593,-0.06766 -0.243994,-0.121249 -0.351265,-0.119077 -0.107268,0.0021 -0.435146,-0.147638 -0.728609,-0.332895 -0.293462,-0.185255 -0.651213,-0.486391 -0.795004,-0.66919 -0.143782,-0.182797 -0.31133,-0.334484 -0.372314,-0.33708 -0.06098,-0.0026 -0.275468,-0.221162 -0.476633,-0.485701 -0.253508,-0.333372 -0.349825,-0.590288 -0.313853,-0.837162 0.02855,-0.195899 0.0037,-0.356179 -0.05519,-0.356179 -0.0589,0 -0.107084,-0.06173 -0.107084,-0.13716 0,-0.07543 0.05828,-0.101147 0.129525,-0.05712 0.07753,0.04791 0.129525,-0.114318 0.129525,-0.404102 0,-0.266281 0.0672,-0.69228 0.149336,-0.946665 0.08213,-0.254383 0.232956,-0.702882 0.335166,-0.996661 0.105324,-0.30272 0.461359,-0.805525 0.821766,-1.160513 0.577638,-0.568952 0.699531,-0.630429 1.329761,-0.670663 0.533466,-0.03405 0.802961,0.0201 1.165987,0.234285 0.259688,0.153218 0.472158,0.360887 0.472158,0.461485 0,0.100597 -0.422559,0.63397 -0.939022,1.185269 -0.516462,0.5513 -1.03358,1.177215 -1.149149,1.390923 -0.115574,0.213709 -0.285955,0.690978 -0.37863,1.060599 -0.137986,0.550349 -0.138109,0.708657 -6.5e-4,0.874262 0.09228,0.111215 0.220203,0.202221 0.284242,0.202221 0.06404,0 0.343333,0.150147 0.620648,0.333671 0.475036,0.314363 0.564944,0.328371 1.553959,0.242098 0.989745,-0.08634 1.064416,-0.07467 1.306299,0.20423 0.141105,0.162691 0.256546,0.406098 0.256546,0.540911 0,0.134803 -0.145374,0.390489 -0.32307,0.568179 -0.17769,0.177689 -0.498134,0.335319 -0.712105,0.350293 -0.213969,0.015 -0.38915,0.08259 -0.389291,0.150269 -1.29e-4,0.06767 -0.06748,0.05584 -0.149625,-0.02633 -0.10277,-0.102754 -0.223988,-0.109424 -0.388561,-0.02134 z"
     id="path996" />
  <path
     style="fill:#000000;stroke-width:0.0846667"
     d="m 37.056587,67.524322 c 0.05306,0.07199 0.586845,-0.09066 0.978645,0.07818 0.3918,0.168847 0.850559,0.371284 1.019467,0.449861 0.168908,0.07858 0.336022,0.218223 0.371365,0.310322 0.03534,0.09211 -0.09439,0.314484 -0.28829,0.494186 -0.34905,0.323489 -0.371996,0.326344 -2.314167,0.287964 -1.879904,-0.03716 -1.98725,-0.05383 -2.576843,-0.400407 -0.401316,-0.235901 -0.61522,-0.449806 -0.61522,-0.61522 0,-0.139468 0.06902,-0.253581 0.153388,-0.253581 0.08436,0 0.407966,-0.123238 0.71912,-0.273866 0.311154,-0.150621 0.598772,-0.24083 0.639154,-0.200449 0.04038,0.04038 0.143369,0.0034 0.228869,-0.08232 1.13166,0.194972 0.88685,0.219296 1.684512,0.205324 z"
     id="path1203"
     sodipodi:nodetypes="cscsssssssscc" />
  <path
     style="fill:#db4a32;fill-opacity:1;stroke-width:0.0846667"
     d="m 44.320317,72.116638 c -0.16209,0.0482 -0.376035,-0.0091 -0.544954,-0.145817 -0.152961,-0.12385 -0.246713,-0.256578 -0.208351,-0.294938 0.03835,-0.03837 0.0018,-0.196601 -0.08112,-0.351646 -0.09381,-0.175278 -0.147011,-0.90205 -0.140663,-1.921515 0.0057,-0.901789 -0.03321,-1.698513 -0.08628,-1.770498 -0.05306,-0.07199 -0.41705,-0.269028 -0.808849,-0.437875 -0.391799,-0.168847 -0.85056,-0.371285 -1.019468,-0.449861 -0.168907,-0.07858 -0.336022,-0.218223 -0.371365,-0.310322 -0.03534,-0.09211 0.09439,-0.314485 0.28829,-0.494186 0.34905,-0.323489 0.371997,-0.326345 2.314168,-0.287964 1.879904,0.03716 1.98725,0.05383 2.576844,0.400406 0.401315,0.235901 0.61522,0.449806 0.61522,0.61522 0,0.139468 -0.06902,0.253582 -0.153389,0.253582 -0.08436,0 -0.407966,0.123237 -0.71912,0.273866 -0.311153,0.150621 -0.598772,0.240829 -0.639153,0.200448 -0.04038,-0.04038 -0.14337,-0.0034 -0.22887,0.08232 -0.100598,0.100765 -0.14389,0.512265 -0.122688,1.165998 0.01802,0.555646 -0.0104,1.414871 -0.0633,1.909385 -0.06255,0.585423 -0.04826,0.947485 0.04097,1.037745 0.09667,0.09778 0.06071,0.183947 -0.121998,0.292457 -0.142467,0.08461 -0.379125,0.189551 -0.525895,0.233205 z"
     id="path1205" />
</svg>
